<?xml version="1.0" encoding="iso-8859-1"?>
<!-- Generator: Adobe Illustrator 19.0.0, SVG Export Plug-In . SVG Version: 6.00 Build 0)  -->
<svg version="1.1" id="Capa_1" xmlns="http://www.w3.org/2000/svg" xmlns:xlink="http://www.w3.org/1999/xlink" x="0px" y="0px"
	 viewBox="0 0 512.001 512.001" style="enable-background:new 0 0 512.001 512.001;" xml:space="preserve">
<path style="fill:#AB2300;" d="M500.666,259.312c0,7.775-1.293,17.532-3.764,26.463c-4.734,17.205-15.38,37.612-39.144,46.272
	c-9.534,3.46-13.717,2.623-20.038-5.048c-16.71-20.674-16.255-45.864-6.416-70.455c0.038-0.104,0.086-0.2,0.124-0.295
	c0.095-0.237,0.191-0.475,0.295-0.713c3.783-9.116,7.557-14.734,7.652-14.914l61.263,17.338
	C500.648,258.01,500.666,258.476,500.666,259.312z"/>
<g>
	<path style="fill:#891C00;" d="M500.666,259.312c-0.061,7.706-1.324,17.679-3.707,26.482c-52.812-14.949-26.79-7.583-34.286-9.705
		c-6.159-1.74-12.528,2.024-13.973,8.26c-5.104,22.119-1.207,35.598,9.059,47.699c-9.534,3.46-13.717,2.623-20.038-5.048
		c-16.71-20.674-16.255-45.864-6.416-70.455c0.038-0.104,0.086-0.2,0.124-0.295c4.182-9.382,7.946-15.455,7.946-15.627
		l61.263,17.338C500.648,258.01,500.666,258.476,500.666,259.312z"/>
	<path style="fill:#891C00;" d="M488.709,206.326l-8.53,30.143c-0.804,2.843-3.79,4.511-6.633,3.706l-1.774-0.502
		c-2.843-0.804-4.511-3.79-3.706-6.633l8.53-30.143c0.932-3.293,4.388-5.223,7.679-4.292l0.141,0.04
		C487.708,199.578,489.64,203.034,488.709,206.326z"/>
</g>
<path style="fill:#781900;" d="M485.661,217.097l-5.482,19.372c-0.804,2.843-3.79,4.511-6.633,3.706l-1.774-0.502
	c-2.843-0.804-4.511-3.79-3.706-6.633l5.482-19.372L485.661,217.097z"/>
<path style="fill:#AB2300;" d="M510.803,268.385c-0.722,2.551-3.408,4.096-6.011,3.36c-80.877-22.944-76.286-21.451-77.272-22.021
	c-1.879-1.082-2.881-3.359-2.262-5.548c4.711-16.647,22.262-26.829,39.356-21.992c22.351,6.346,34.417,7.24,42.681,20.924
	C511.85,250.552,513.266,259.68,510.803,268.385z"/>
<g>
	<path style="fill:#FF9811;" d="M264.856,486.135c-20.593-2.217-32.843-17.85-32.843-17.85
		c-37.721-43.145-36.813-84.165-23.8-116.699l-0.206-0.495c23.016-68.347,23.026-121.453,15.963-159.339
		c-10.137-54.416-53.137-97.2-107.903-105.294c-37.515-5.558-66.016,5.084-83.227,17.809c-19.304,14.282-30.863,31.492-32.74,61.572
		c-1.227,19.52,8.734,53.694,41.351,67.677c0,0,68.45,23.614,89.6-45.465c3.619-11.848,14.705,42.959,15.849,55.168
		c1.258,13.374-0.794,27.058-5.28,39.659c-3.661,10.26-15.488,25.841-8.095,36.793c1.217,1.794,4.537,6.032,7.94,10.209
		c5.259,6.445,7.342,14.911,5.661,23.057l-0.031,0.134c-1.805,8.724,0.722,17.788,6.775,24.336
		c7.868,8.497,12.343,19.593,12.508,31.173c0.371,26.202,12.611,75.204,98.499,77.597L264.856,486.135z"/>
	<path style="fill:#FF9811;" d="M343.91,29.077c-25.72,56.104-16.579,92.748-16.579,92.748l51.146-1.08
		c-0.997-47.22-15.63-78.196-24.099-92.269C351.919,24.389,345.898,24.742,343.91,29.077z"/>
</g>
<path style="fill:#FFA733;" d="M474.359,463.717c0,12.457-10.198,22.645-22.645,22.645c-86.496-0.103-167.599,0.031-183.386,0.031
	c-23.501,0-37.69-18.108-37.69-18.108c-86.537-98.994,30.224-186.758,30.224-186.758l57.684-57.685
	c5.259-5.249,5.207-13.777-0.103-18.974l-0.124-0.124c-17.644-17.654-21.253-44.207-10.858-65.522
	c-3.217-6.466-20.325-43.959-14.736-99.788c0.464-4.713,6.001-6.971,9.6-3.908c5.496,4.64,13.148,11.993,21.376,22.542
	c8.456,10.889,17.52,25.161,25.398,43.382c23.377-8.786,50.858-3.836,69.595,14.89l24.099,24.099c8.497,8.497,8.497,22.408,0,30.905
	c-0.01,0-22.531,22.738-35.267,35.184c-4.228,4.125-5.372,10.518-2.733,15.798c6.032,12.013,5.878,26.378-0.433,38.267h24.707
	c6.218,0,11.89,2.547,15.983,6.661c4.114,4.094,6.661,9.755,6.661,15.983c0,12.457-10.188,22.645-22.645,22.645h-50.642
	c15.097,14.065,26.182,32.73,30.822,54.436c6.228,29.11-0.371,57.984-15.983,80.752h58.448c6.228,0,11.89,2.547,15.983,6.651
	C471.801,451.827,474.359,457.499,474.359,463.717z"/>
<circle style="fill:#AA6100;" cx="400.626" cy="149.635" r="11.169"/>
<path style="fill:#FF9811;" d="M352.473,215.696c5.311,5.197,5.362,13.725,0.103,18.964l-57.685,57.695
	c0,0-116.761,87.754-30.224,186.758c0,0,2.671,3.413,7.631,7.28h-3.97c-23.501,0-37.69-18.108-37.69-18.108
	c-86.537-98.994,30.224-186.758,30.224-186.758l57.685-57.685c5.259-5.249,5.207-13.777-0.103-18.974l-0.124-0.124
	c-17.644-17.654-21.253-44.207-10.858-65.522c-3.217-6.466-20.325-43.959-14.736-99.788c0.464-4.713,6.001-6.971,9.6-3.908
	c5.496,4.64,13.148,11.993,21.376,22.542c0.742,0.959,1.485,1.939,2.238,2.949c-2.588,49.858,12.539,82.99,15.55,89.033
	c-10.394,21.315-6.785,47.868,10.858,65.522L352.473,215.696z"/>
<path style="fill:#EE8700;" d="M264.853,486.135c-20.593-2.217-32.843-17.85-32.843-17.85
	c-37.721-43.145-36.813-84.165-23.8-116.699l-0.206-0.495c23.016-68.347,23.026-121.453,15.963-159.339
	c-10.137-54.416-53.137-97.2-107.903-105.294c-37.515-5.558-66.016,5.084-83.227,17.809c-4.362,3.228-8.332,6.61-11.89,10.26
	c16.365-6.579,37.473-10.147,62.634-6.414c54.766,8.095,97.767,50.879,107.903,105.294c7.064,37.886,7.053,90.992-15.963,159.339
	l0.206,0.495c-6.301,15.746-9.755,33.472-7.383,52.467c5.816,26.171,27.13,58.54,96.529,60.469L264.853,486.135z"/>
<path style="fill:#FFB655;" d="M409.25,360.32c-4.64-21.706-15.726-40.371-30.822-54.436c0,0,19.737,66.934,14.839,135.188
	C408.879,418.303,415.478,389.43,409.25,360.32z"/>
<g>
</g>
<g>
</g>
<g>
</g>
<g>
</g>
<g>
</g>
<g>
</g>
<g>
</g>
<g>
</g>
<g>
</g>
<g>
</g>
<g>
</g>
<g>
</g>
<g>
</g>
<g>
</g>
<g>
</g>
</svg>
